<svg xmlns="http://www.w3.org/2000/svg" version="1.1" viewBox="2.1550002098083496 1.9198603630065918 887.1549682617188 932.9928588867188" width="891.00" height="937.00">
<g stroke-width="2.00" fill="none" stroke-linecap="butt">
<path stroke="#a2a2a2" d="&#xA;  M 172.01 464.72&#xA;  Q 170.25 456.34 167.99 447.77&#xA;  Q 166.96 443.85 166.34 440.17&#xA;  C 165.41 434.56 163.48 429.55 162.10 424.27&#xA;  C 160.62 418.64 158.93 413.17 157.89 407.45&#xA;  C 156.90 401.98 155.01 396.86 153.87 391.26&#xA;  C 152.80 385.96 150.80 380.95 149.88 375.50&#xA;  Q 149.23 371.66 148.01 367.42&#xA;  Q 144.57 355.51 141.19 341.97&#xA;  Q 140.54 339.34 139.63 336.39&#xA;  Q 138.83 333.80 138.26 330.97&#xA;  Q 136.50 322.25 133.55 313.74&#xA;  Q 133.40 313.31 132.94 313.31&#xA;  L 71.98 313.35&#xA;  A 0.53 0.53 0.0 0 0 71.53 314.17&#xA;  Q 72.48 315.66 73.03 317.51&#xA;  Q 76.86 330.45 80.67 343.76&#xA;  C 81.41 346.34 81.90 349.19 82.73 351.78&#xA;  Q 85.73 361.18 88.21 370.23&#xA;  Q 90.71 379.38 93.43 388.72&#xA;  C 95.61 396.21 97.63 403.48 99.72 410.62&#xA;  Q 103.84 424.65 107.50 438.26&#xA;  C 108.20 440.89 109.43 443.31 110.02 446.00&#xA;  C 110.77 449.46 112.18 452.63 113.11 456.09&#xA;  Q 118.86 477.43 124.97 498.02&#xA;  C 126.05 501.66 126.92 505.37 128.22 508.93&#xA;  C 129.58 512.67 130.38 516.52 131.53 520.35&#xA;  Q 136.33 536.28 140.85 552.02&#xA;  A 1.09 1.08 81.5 0 0 141.90 552.81&#xA;  Q 164.52 552.50 186.03 553.24&#xA;  Q 188.42 553.32 190.70 553.22&#xA;  Q 191.19 553.20 191.34 552.74&#xA;  C 196.45 537.27 201.99 521.51 206.96 505.55&#xA;  C 209.74 496.62 212.79 487.87 215.73 479.03&#xA;  C 217.52 473.65 218.82 468.23 220.80 462.96&#xA;  Q 221.98 459.83 222.98 456.50&#xA;  Q 226.91 443.35 230.51 430.01&#xA;  Q 231.52 426.27 232.55 430.01&#xA;  Q 233.28 432.66 233.65 435.32&#xA;  Q 234.31 440.01 236.29 444.94&#xA;  C 237.68 448.41 238.11 452.11 239.23 455.49&#xA;  Q 243.00 466.89 246.42 478.44&#xA;  C 247.54 482.23 248.95 485.78 250.02 489.54&#xA;  Q 251.19 493.68 252.61 497.89&#xA;  Q 255.17 505.48 257.42 513.18&#xA;  C 258.55 517.03 260.18 520.60 261.23 524.40&#xA;  C 262.73 529.81 264.81 535.01 266.08 540.61&#xA;  C 266.99 544.62 268.79 548.39 269.77 552.44&#xA;  Q 269.92 553.04 270.53 553.04&#xA;  L 321.44 552.88&#xA;  Q 322.11 552.88 322.26 552.23&#xA;  C 323.27 548.00 325.11 544.07 326.01 539.76&#xA;  C 327.01 535.02 329.19 530.76 330.08 526.01&#xA;  Q 330.93 521.47 332.40 517.18&#xA;  C 333.72 513.29 334.44 509.27 335.78 505.36&#xA;  Q 337.23 501.15 338.55 496.57&#xA;  Q 341.96 484.76 345.19 472.96&#xA;  Q 345.78 470.81 346.34 468.59&#xA;  Q 346.90 466.38 347.71 464.30&#xA;  C 349.51 459.69 350.26 454.99 351.84 450.37&#xA;  C 353.39 445.85 354.19 441.09 355.87 436.59&#xA;  Q 356.98 433.61 357.79 430.39&#xA;  C 359.12 425.15 361.24 420.15 362.32 414.86&#xA;  C 363.29 410.16 365.03 405.71 366.31 401.11&#xA;  Q 372.64 378.29 378.95 356.99&#xA;  C 379.85 353.93 381.13 351.14 381.81 347.93&#xA;  Q 382.85 343.09 384.64 338.19&#xA;  C 385.82 334.93 386.13 331.44 387.28 328.16&#xA;  Q 389.10 322.98 390.64 317.42&#xA;  Q 391.15 315.54 392.25 313.96&#xA;  A 0.36 0.36 0.0 0 0 391.95 313.40&#xA;  L 334.05 313.32&#xA;  Q 333.65 313.32 333.53 313.71&#xA;  Q 331.16 321.58 329.48 328.98&#xA;  Q 328.58 332.96 327.28 337.36&#xA;  Q 326.11 341.30 325.01 345.69&#xA;  Q 324.35 348.35 323.66 351.04&#xA;  Q 319.70 366.35 315.61 381.28&#xA;  C 314.32 386.02 313.44 390.75 312.20 395.38&#xA;  Q 308.93 407.62 305.66 420.50&#xA;  Q 304.81 423.86 303.84 427.11&#xA;  Q 302.81 430.59 302.05 433.94&#xA;  C 300.77 439.63 299.06 445.10 297.68 450.71&#xA;  Q 296.36 456.04 295.20 461.02&#xA;  C 294.56 463.80 294.40 466.51 293.26 469.06&#xA;  Q 292.63 470.48 292.31 468.96&#xA;  Q 290.11 458.64 286.76 447.79&#xA;  Q 283.55 437.39 281.22 428.58&#xA;  Q 277.47 414.44 272.93 399.28&#xA;  Q 271.34 393.96 270.45 389.92&#xA;  C 269.97 387.75 269.12 385.83 268.55 383.76&#xA;  Q 264.89 370.60 261.80 358.68&#xA;  C 261.05 355.75 259.55 353.08 259.01 350.06&#xA;  Q 258.06 344.74 256.42 340.07&#xA;  C 254.28 333.98 253.24 327.48 251.34 321.36&#xA;  C 250.57 318.87 250.16 316.31 249.55 313.76&#xA;  Q 249.43 313.29 248.95 313.29&#xA;  L 219.44 313.31&#xA;  A 0.69 0.69 0.0 0 0 218.78 313.80&#xA;  Q 216.55 321.50 214.36 329.36&#xA;  Q 212.94 334.44 210.81 340.07&#xA;  C 208.33 346.64 206.71 353.66 204.25 360.54&#xA;  Q 202.48 365.51 201.40 370.32&#xA;  C 200.80 372.98 199.38 375.32 198.66 377.79&#xA;  Q 197.39 382.17 195.93 386.05&#xA;  C 193.98 391.24 193.36 396.71 191.37 401.88&#xA;  C 190.00 405.42 189.24 409.10 188.15 412.72&#xA;  Q 180.24 438.83 172.50 464.75&#xA;  Q 172.22 465.70 172.01 464.72"/>
<path stroke="#a2a2a2" d="&#xA;  M 658.13 425.24&#xA;  C 658.93 428.36 659.35 431.46 660.25 434.54&#xA;  Q 661.52 438.88 662.75 443.21&#xA;  Q 666.51 456.50 672.36 473.64&#xA;  C 673.60 477.27 673.94 481.05 675.36 484.45&#xA;  Q 676.93 488.23 677.88 491.93&#xA;  C 680.40 501.75 683.97 511.61 687.07 521.43&#xA;  Q 691.41 535.22 695.71 547.77&#xA;  Q 696.56 550.25 697.62 552.72&#xA;  Q 697.85 553.26 698.43 553.26&#xA;  L 748.74 553.27&#xA;  Q 749.24 553.27 749.40 552.79&#xA;  Q 751.33 546.76 752.90 540.45&#xA;  Q 754.50 534.05 756.73 527.44&#xA;  Q 759.82 518.28 761.62 510.69&#xA;  Q 762.81 505.67 763.94 502.32&#xA;  C 765.71 497.11 767.06 491.76 768.64 486.53&#xA;  C 771.03 478.60 773.08 470.65 775.50 462.77&#xA;  C 777.16 457.39 778.58 451.96 780.20 446.55&#xA;  C 782.92 437.44 785.39 427.70 788.61 418.37&#xA;  C 789.94 414.50 790.36 410.61 791.47 406.76&#xA;  Q 793.77 398.79 796.02 391.81&#xA;  C 797.85 386.15 798.97 380.43 800.98 374.84&#xA;  C 802.09 371.75 802.44 368.51 803.48 365.41&#xA;  Q 804.53 362.25 805.41 359.03&#xA;  Q 807.77 350.43 810.00 342.14&#xA;  Q 810.97 338.50 812.09 334.93&#xA;  C 813.51 330.34 814.19 325.47 816.04 321.03&#xA;  Q 817.36 317.87 818.59 314.33&#xA;  A 0.71 0.70 -80.7 0 0 817.92 313.39&#xA;  L 761.12 313.42&#xA;  A 1.07 1.05 -79.6 0 0 760.13 314.11&#xA;  Q 759.21 316.59 758.69 319.08&#xA;  C 756.95 327.49 754.59 334.99 752.52 343.34&#xA;  Q 751.03 349.38 749.16 355.32&#xA;  Q 747.52 360.52 746.53 364.85&#xA;  C 745.02 371.42 743.02 377.64 741.75 384.13&#xA;  C 741.00 387.95 739.69 391.53 738.85 395.31&#xA;  C 737.38 401.97 735.13 408.05 733.75 414.68&#xA;  C 733.05 418.07 731.57 421.71 731.01 424.62&#xA;  Q 729.61 432.03 727.50 439.11&#xA;  C 726.45 442.65 725.74 446.16 724.97 449.78&#xA;  C 723.79 455.33 721.98 460.65 721.18 466.29&#xA;  A 1.28 1.26 -15.4 0 1 720.70 467.12&#xA;  Q 720.22 467.51 719.65 467.24&#xA;  Q 719.09 466.97 718.90 466.35&#xA;  Q 716.79 459.61 714.47 453.62&#xA;  C 713.53 451.19 713.65 448.60 712.97 446.11&#xA;  Q 709.02 431.71 704.53 416.20&#xA;  Q 703.03 411.01 701.77 405.73&#xA;  C 700.97 402.38 699.70 399.29 698.92 395.96&#xA;  Q 698.06 392.30 696.91 388.62&#xA;  C 695.14 382.92 693.90 377.02 692.22 371.50&#xA;  Q 690.26 365.05 688.64 357.98&#xA;  C 688.10 355.61 687.05 353.54 686.52 351.18&#xA;  C 685.33 345.88 683.16 340.87 681.78 335.61&#xA;  Q 679.08 325.33 675.53 313.73&#xA;  Q 675.40 313.30 674.96 313.30&#xA;  L 647.70 313.33&#xA;  A 0.94 0.94 0.0 0 0 646.76 314.23&#xA;  C 646.70 315.31 646.63 316.44 646.32 317.49&#xA;  C 643.44 327.18 640.97 336.48 637.82 346.15&#xA;  C 634.88 355.18 632.22 364.64 628.77 373.90&#xA;  Q 627.08 378.46 625.10 385.69&#xA;  Q 622.80 394.11 620.04 401.85&#xA;  C 618.72 405.54 617.93 409.33 616.67 412.93&#xA;  Q 615.23 417.04 613.98 421.43&#xA;  Q 611.48 430.15 608.56 438.50&#xA;  Q 603.59 452.71 600.91 464.23&#xA;  Q 600.65 465.35 599.93 466.29&#xA;  Q 599.59 466.74 599.43 466.20&#xA;  Q 598.36 462.75 597.89 459.21&#xA;  Q 597.42 455.67 596.52 452.35&#xA;  Q 594.68 445.51 592.93 438.64&#xA;  C 591.57 433.28 590.72 428.10 589.29 422.93&#xA;  Q 587.69 417.17 586.39 411.13&#xA;  Q 584.09 400.45 581.28 389.88&#xA;  Q 579.09 381.66 577.27 373.96&#xA;  Q 575.18 365.15 573.39 358.01&#xA;  Q 568.03 336.54 562.08 313.85&#xA;  Q 561.93 313.29 561.35 313.29&#xA;  L 502.25 313.39&#xA;  Q 501.36 313.39 501.61 314.23&#xA;  Q 507.80 335.93 513.23 356.87&#xA;  Q 514.43 361.52 515.61 365.46&#xA;  Q 516.91 369.83 517.96 374.12&#xA;  C 519.05 378.58 520.52 382.81 521.53 387.33&#xA;  Q 523.98 398.28 527.35 408.79&#xA;  C 528.89 413.60 529.79 418.04 530.92 422.82&#xA;  C 531.84 426.69 533.25 430.32 534.16 434.21&#xA;  Q 535.13 438.36 536.33 442.65&#xA;  Q 540.84 458.77 546.13 478.11&#xA;  C 547.71 483.88 549.61 489.21 550.81 494.93&#xA;  C 551.42 497.86 552.77 500.56 553.35 503.53&#xA;  Q 554.51 509.41 556.31 514.97&#xA;  C 558.75 522.45 560.17 530.24 562.63 537.56&#xA;  Q 564.88 544.23 567.26 552.30&#xA;  Q 567.55 553.26 568.56 553.26&#xA;  L 616.53 553.25&#xA;  A 2.77 2.76 -78.7 0 0 619.08 551.55&#xA;  C 621.32 546.22 622.28 540.82 624.28 535.49&#xA;  C 625.58 532.01 626.21 528.33 627.47 524.77&#xA;  Q 629.80 518.23 632.10 512.14&#xA;  C 633.44 508.60 634.28 505.02 635.66 501.58&#xA;  C 637.89 495.98 638.67 490.14 640.71 484.61&#xA;  Q 642.15 480.68 643.64 475.81&#xA;  Q 646.23 467.32 649.09 458.21&#xA;  Q 649.54 456.78 649.97 455.31&#xA;  Q 653.49 443.35 657.16 431.75&#xA;  Q 657.84 429.63 657.83 425.28&#xA;  Q 657.82 424.07 658.13 425.24"/>
<path stroke="#a2a2a2" d="&#xA;  M 464.19 346.47&#xA;  Q 458.30 343.59 453.65 342.53&#xA;  Q 445.11 340.59 435.16 340.71&#xA;  C 430.12 340.78 424.45 341.77 419.25 342.51&#xA;  C 416.41 342.90 413.62 344.93 410.77 345.82&#xA;  Q 406.12 347.28 402.98 349.70&#xA;  C 396.34 354.81 391.01 362.58 390.02 371.28&#xA;  Q 389.44 376.36 389.79 380.89&#xA;  C 390.44 389.33 396.00 400.17 403.95 404.58&#xA;  Q 407.39 406.49 410.95 408.15&#xA;  Q 414.97 410.01 421.28 411.24&#xA;  Q 432.93 413.52 443.67 412.64&#xA;  Q 456.61 411.59 467.47 405.29&#xA;  C 469.81 403.94 471.29 402.23 473.36 400.72&#xA;  C 476.92 398.13 478.85 394.55 480.19 390.41&#xA;  Q 485.05 375.36 479.59 360.68&#xA;  C 478.38 357.43 475.76 355.74 473.73 353.15&#xA;  C 471.26 349.99 467.72 348.19 464.19 346.47"/>
<path stroke="#a2a2a2" d="&#xA;  M 477.29 499.36&#xA;  C 470.29 491.06 459.89 485.75 448.56 484.42&#xA;  C 446.54 484.18 444.65 483.62 442.57 483.49&#xA;  Q 428.83 482.62 417.04 485.74&#xA;  Q 407.23 488.33 400.90 493.55&#xA;  Q 388.74 503.56 389.83 520.57&#xA;  Q 391.04 539.55 406.96 548.35&#xA;  C 409.63 549.83 412.65 550.75 415.50 551.97&#xA;  Q 418.72 553.35 422.40 553.83&#xA;  C 436.06 555.63 452.90 555.56 465.03 548.35&#xA;  Q 470.58 545.06 476.30 539.35&#xA;  Q 478.39 537.25 479.28 534.52&#xA;  Q 481.90 526.40 482.25 521.62&#xA;  Q 482.61 516.80 481.34 509.66&#xA;  Q 480.10 502.70 477.29 499.36"/>
</g>
<path fill="#454545" d="&#xA;  M 19.68 765.31&#xA;  C 16.56 758.54 13.03 751.74 10.66 744.71&#xA;  C 9.28 740.64 7.80 736.65 6.89 732.41&#xA;  Q 4.02 718.92 3.09 711.45&#xA;  Q 2.39 705.75 2.41 697.51&#xA;  Q 2.60 619.70 2.18 539.00&#xA;  Q 2.13 529.02 2.18 519.00&#xA;  C 2.56 440.77 2.80 374.39 2.23 299.00&#xA;  Q 2.19 294.66 2.22 290.50&#xA;  Q 2.66 211.92 2.95 143.75&#xA;  Q 2.96 141.08 2.99 138.50&#xA;  Q 3.03 135.12 5.35 123.04&#xA;  Q 6.84 115.27 9.22 108.26&#xA;  Q 16.12 87.87 25.24 73.36&#xA;  Q 34.55 58.54 50.68 42.80&#xA;  C 55.92 37.69 62.15 33.49 67.89 29.07&#xA;  C 76.60 22.36 85.67 18.29 96.06 13.58&#xA;  Q 100.62 11.51 105.22 10.13&#xA;  C 109.44 8.86 113.24 7.27 117.58 6.47&#xA;  Q 125.75 4.96 133.90 3.52&#xA;  C 137.89 2.81 141.85 2.67 145.86 2.25&#xA;  Q 148.20 2.01 150.65 2.01&#xA;  Q 213.67 2.03 275.00 2.11&#xA;  Q 524.97 2.43 736.75 1.92&#xA;  C 740.95 1.91 745.06 2.44 749.25 2.58&#xA;  Q 751.68 2.67 754.09 2.94&#xA;  Q 773.86 5.18 791.52 11.48&#xA;  C 796.29 13.18 801.20 15.93 805.35 17.88&#xA;  C 817.44 23.56 827.38 30.93 837.49 39.59&#xA;  Q 843.86 45.04 848.55 50.15&#xA;  Q 876.43 80.53 885.33 119.21&#xA;  Q 887.22 127.42 888.34 139.53&#xA;  Q 889.19 148.77 889.19 158.85&#xA;  Q 889.19 420.77 889.31 693.86&#xA;  Q 889.31 702.41 888.31 710.60&#xA;  Q 887.18 719.93 885.79 727.16&#xA;  Q 884.23 735.29 880.61 745.95&#xA;  Q 877.54 754.97 873.56 762.70&#xA;  Q 866.13 777.11 858.04 787.43&#xA;  C 849.98 797.71 838.62 809.15 827.59 817.05&#xA;  C 815.43 825.76 801.86 833.16 787.74 837.62&#xA;  Q 783.17 839.07 778.50 840.37&#xA;  Q 770.24 842.68 761.24 844.07&#xA;  Q 753.42 845.28 746.16 845.32&#xA;  Q 716.51 845.47 687.25 845.49&#xA;  Q 684.87 845.49 682.64 846.82&#xA;  C 676.97 850.18 671.46 853.84 666.28 858.04&#xA;  Q 660.96 862.37 654.55 866.59&#xA;  C 652.91 867.67 651.59 869.02 649.89 870.10&#xA;  C 643.93 873.85 637.85 878.80 632.74 882.34&#xA;  Q 625.10 887.64 616.91 893.94&#xA;  C 611.57 898.03 605.67 901.46 600.38 905.87&#xA;  Q 594.43 910.84 587.42 915.58&#xA;  C 578.22 921.80 570.42 928.12 561.66 934.42&#xA;  A 2.61 2.60 -46.9 0 1 558.76 934.52&#xA;  C 555.27 932.34 552.40 929.41 549.03 927.02&#xA;  Q 537.29 918.70 525.09 909.97&#xA;  Q 522.49 908.11 520.10 906.01&#xA;  C 515.83 902.26 510.88 899.28 506.16 896.12&#xA;  C 500.45 892.31 494.62 887.27 488.62 883.17&#xA;  C 483.69 879.80 479.00 876.10 473.93 872.65&#xA;  Q 462.72 865.03 448.32 854.27&#xA;  C 444.51 851.41 440.13 849.11 436.18 846.48&#xA;  Q 434.29 845.23 432.17 845.24&#xA;  Q 284.83 845.52 146.34 845.35&#xA;  Q 142.79 845.35 139.09 844.97&#xA;  Q 126.88 843.75 116.61 841.13&#xA;  Q 97.77 836.33 79.60 826.46&#xA;  Q 69.34 820.89 60.48 814.08&#xA;  Q 56.06 810.68 51.78 806.54&#xA;  C 48.02 802.91 44.12 799.48 40.71 795.53&#xA;  Q 31.03 784.36 22.79 771.49&#xA;  Q 21.86 770.04 19.68 765.31&#xA;  Z&#xA;  M 172.01 464.72&#xA;  Q 170.25 456.34 167.99 447.77&#xA;  Q 166.96 443.85 166.34 440.17&#xA;  C 165.41 434.56 163.48 429.55 162.10 424.27&#xA;  C 160.62 418.64 158.93 413.17 157.89 407.45&#xA;  C 156.90 401.98 155.01 396.86 153.87 391.26&#xA;  C 152.80 385.96 150.80 380.95 149.88 375.50&#xA;  Q 149.23 371.66 148.01 367.42&#xA;  Q 144.57 355.51 141.19 341.97&#xA;  Q 140.54 339.34 139.63 336.39&#xA;  Q 138.83 333.80 138.26 330.97&#xA;  Q 136.50 322.25 133.55 313.74&#xA;  Q 133.40 313.31 132.94 313.31&#xA;  L 71.98 313.35&#xA;  A 0.53 0.53 0.0 0 0 71.53 314.17&#xA;  Q 72.48 315.66 73.03 317.51&#xA;  Q 76.86 330.45 80.67 343.76&#xA;  C 81.41 346.34 81.90 349.19 82.73 351.78&#xA;  Q 85.73 361.18 88.21 370.23&#xA;  Q 90.71 379.38 93.43 388.72&#xA;  C 95.61 396.21 97.63 403.48 99.72 410.62&#xA;  Q 103.84 424.65 107.50 438.26&#xA;  C 108.20 440.89 109.43 443.31 110.02 446.00&#xA;  C 110.77 449.46 112.18 452.63 113.11 456.09&#xA;  Q 118.86 477.43 124.97 498.02&#xA;  C 126.05 501.66 126.92 505.37 128.22 508.93&#xA;  C 129.58 512.67 130.38 516.52 131.53 520.35&#xA;  Q 136.33 536.28 140.85 552.02&#xA;  A 1.09 1.08 81.5 0 0 141.90 552.81&#xA;  Q 164.52 552.50 186.03 553.24&#xA;  Q 188.42 553.32 190.70 553.22&#xA;  Q 191.19 553.20 191.34 552.74&#xA;  C 196.45 537.27 201.99 521.51 206.96 505.55&#xA;  C 209.74 496.62 212.79 487.87 215.73 479.03&#xA;  C 217.52 473.65 218.82 468.23 220.80 462.96&#xA;  Q 221.98 459.83 222.98 456.50&#xA;  Q 226.91 443.35 230.51 430.01&#xA;  Q 231.52 426.27 232.55 430.01&#xA;  Q 233.28 432.66 233.65 435.32&#xA;  Q 234.31 440.01 236.29 444.94&#xA;  C 237.68 448.41 238.11 452.11 239.23 455.49&#xA;  Q 243.00 466.89 246.42 478.44&#xA;  C 247.54 482.23 248.95 485.78 250.02 489.54&#xA;  Q 251.19 493.68 252.61 497.89&#xA;  Q 255.17 505.48 257.42 513.18&#xA;  C 258.55 517.03 260.18 520.60 261.23 524.40&#xA;  C 262.73 529.81 264.81 535.01 266.08 540.61&#xA;  C 266.99 544.62 268.79 548.39 269.77 552.44&#xA;  Q 269.92 553.04 270.53 553.04&#xA;  L 321.44 552.88&#xA;  Q 322.11 552.88 322.26 552.23&#xA;  C 323.27 548.00 325.11 544.07 326.01 539.76&#xA;  C 327.01 535.02 329.19 530.76 330.08 526.01&#xA;  Q 330.93 521.47 332.40 517.18&#xA;  C 333.72 513.29 334.44 509.27 335.78 505.36&#xA;  Q 337.23 501.15 338.55 496.57&#xA;  Q 341.96 484.76 345.19 472.96&#xA;  Q 345.78 470.81 346.34 468.59&#xA;  Q 346.90 466.38 347.71 464.30&#xA;  C 349.51 459.69 350.26 454.99 351.84 450.37&#xA;  C 353.39 445.85 354.19 441.09 355.87 436.59&#xA;  Q 356.98 433.61 357.79 430.39&#xA;  C 359.12 425.15 361.24 420.15 362.32 414.86&#xA;  C 363.29 410.16 365.03 405.71 366.31 401.11&#xA;  Q 372.64 378.29 378.95 356.99&#xA;  C 379.85 353.93 381.13 351.14 381.81 347.93&#xA;  Q 382.85 343.09 384.64 338.19&#xA;  C 385.82 334.93 386.13 331.44 387.28 328.16&#xA;  Q 389.10 322.98 390.64 317.42&#xA;  Q 391.15 315.54 392.25 313.96&#xA;  A 0.36 0.36 0.0 0 0 391.95 313.40&#xA;  L 334.05 313.32&#xA;  Q 333.65 313.32 333.53 313.71&#xA;  Q 331.16 321.58 329.48 328.98&#xA;  Q 328.58 332.96 327.28 337.36&#xA;  Q 326.11 341.30 325.01 345.69&#xA;  Q 324.35 348.35 323.66 351.04&#xA;  Q 319.70 366.35 315.61 381.28&#xA;  C 314.32 386.02 313.44 390.75 312.20 395.38&#xA;  Q 308.93 407.62 305.66 420.50&#xA;  Q 304.81 423.86 303.84 427.11&#xA;  Q 302.81 430.59 302.05 433.94&#xA;  C 300.77 439.63 299.06 445.10 297.68 450.71&#xA;  Q 296.36 456.04 295.20 461.02&#xA;  C 294.56 463.80 294.40 466.51 293.26 469.06&#xA;  Q 292.63 470.48 292.31 468.96&#xA;  Q 290.11 458.64 286.76 447.79&#xA;  Q 283.55 437.39 281.22 428.58&#xA;  Q 277.47 414.44 272.93 399.28&#xA;  Q 271.34 393.96 270.45 389.92&#xA;  C 269.97 387.75 269.12 385.83 268.55 383.76&#xA;  Q 264.89 370.60 261.80 358.68&#xA;  C 261.05 355.75 259.55 353.08 259.01 350.06&#xA;  Q 258.06 344.74 256.42 340.07&#xA;  C 254.28 333.98 253.24 327.48 251.34 321.36&#xA;  C 250.57 318.87 250.16 316.31 249.55 313.76&#xA;  Q 249.43 313.29 248.95 313.29&#xA;  L 219.44 313.31&#xA;  A 0.69 0.69 0.0 0 0 218.78 313.80&#xA;  Q 216.55 321.50 214.36 329.36&#xA;  Q 212.94 334.44 210.81 340.07&#xA;  C 208.33 346.64 206.71 353.66 204.25 360.54&#xA;  Q 202.48 365.51 201.40 370.32&#xA;  C 200.80 372.98 199.38 375.32 198.66 377.79&#xA;  Q 197.39 382.17 195.93 386.05&#xA;  C 193.98 391.24 193.36 396.71 191.37 401.88&#xA;  C 190.00 405.42 189.24 409.10 188.15 412.72&#xA;  Q 180.24 438.83 172.50 464.75&#xA;  Q 172.22 465.70 172.01 464.72&#xA;  Z&#xA;  M 658.13 425.24&#xA;  C 658.93 428.36 659.35 431.46 660.25 434.54&#xA;  Q 661.52 438.88 662.75 443.21&#xA;  Q 666.51 456.50 672.36 473.64&#xA;  C 673.60 477.27 673.94 481.05 675.36 484.45&#xA;  Q 676.93 488.23 677.88 491.93&#xA;  C 680.40 501.75 683.97 511.61 687.07 521.43&#xA;  Q 691.41 535.22 695.71 547.77&#xA;  Q 696.56 550.25 697.62 552.72&#xA;  Q 697.85 553.26 698.43 553.26&#xA;  L 748.74 553.27&#xA;  Q 749.24 553.27 749.40 552.79&#xA;  Q 751.33 546.76 752.90 540.45&#xA;  Q 754.50 534.05 756.73 527.44&#xA;  Q 759.82 518.28 761.62 510.69&#xA;  Q 762.81 505.67 763.94 502.32&#xA;  C 765.71 497.11 767.06 491.76 768.64 486.53&#xA;  C 771.03 478.60 773.08 470.65 775.50 462.77&#xA;  C 777.16 457.39 778.58 451.96 780.20 446.55&#xA;  C 782.92 437.44 785.39 427.70 788.61 418.37&#xA;  C 789.94 414.50 790.36 410.61 791.47 406.76&#xA;  Q 793.77 398.79 796.02 391.81&#xA;  C 797.85 386.15 798.97 380.43 800.98 374.84&#xA;  C 802.09 371.75 802.44 368.51 803.48 365.41&#xA;  Q 804.53 362.25 805.41 359.03&#xA;  Q 807.77 350.43 810.00 342.14&#xA;  Q 810.97 338.50 812.09 334.93&#xA;  C 813.51 330.34 814.19 325.47 816.04 321.03&#xA;  Q 817.36 317.87 818.59 314.33&#xA;  A 0.71 0.70 -80.7 0 0 817.92 313.39&#xA;  L 761.12 313.42&#xA;  A 1.07 1.05 -79.6 0 0 760.13 314.11&#xA;  Q 759.21 316.59 758.69 319.08&#xA;  C 756.95 327.49 754.59 334.99 752.52 343.34&#xA;  Q 751.03 349.38 749.16 355.32&#xA;  Q 747.52 360.52 746.53 364.85&#xA;  C 745.02 371.42 743.02 377.64 741.75 384.13&#xA;  C 741.00 387.95 739.69 391.53 738.85 395.31&#xA;  C 737.38 401.97 735.13 408.05 733.75 414.68&#xA;  C 733.05 418.07 731.57 421.71 731.01 424.62&#xA;  Q 729.61 432.03 727.50 439.11&#xA;  C 726.45 442.65 725.74 446.16 724.97 449.78&#xA;  C 723.79 455.33 721.98 460.65 721.18 466.29&#xA;  A 1.28 1.26 -15.4 0 1 720.70 467.12&#xA;  Q 720.22 467.51 719.65 467.24&#xA;  Q 719.09 466.97 718.90 466.35&#xA;  Q 716.79 459.61 714.47 453.62&#xA;  C 713.53 451.19 713.65 448.60 712.97 446.11&#xA;  Q 709.02 431.71 704.53 416.20&#xA;  Q 703.03 411.01 701.77 405.73&#xA;  C 700.97 402.38 699.70 399.29 698.92 395.96&#xA;  Q 698.06 392.30 696.91 388.62&#xA;  C 695.14 382.92 693.90 377.02 692.22 371.50&#xA;  Q 690.26 365.05 688.64 357.98&#xA;  C 688.10 355.61 687.05 353.54 686.52 351.18&#xA;  C 685.33 345.88 683.16 340.87 681.78 335.61&#xA;  Q 679.08 325.33 675.53 313.73&#xA;  Q 675.40 313.30 674.96 313.30&#xA;  L 647.70 313.33&#xA;  A 0.94 0.94 0.0 0 0 646.76 314.23&#xA;  C 646.70 315.31 646.63 316.44 646.32 317.49&#xA;  C 643.44 327.18 640.97 336.48 637.82 346.15&#xA;  C 634.88 355.18 632.22 364.64 628.77 373.90&#xA;  Q 627.08 378.46 625.10 385.69&#xA;  Q 622.80 394.11 620.04 401.85&#xA;  C 618.72 405.54 617.93 409.33 616.67 412.93&#xA;  Q 615.23 417.04 613.98 421.43&#xA;  Q 611.48 430.15 608.56 438.50&#xA;  Q 603.59 452.71 600.91 464.23&#xA;  Q 600.65 465.35 599.93 466.29&#xA;  Q 599.59 466.74 599.43 466.20&#xA;  Q 598.36 462.75 597.89 459.21&#xA;  Q 597.42 455.67 596.52 452.35&#xA;  Q 594.68 445.51 592.93 438.64&#xA;  C 591.57 433.28 590.72 428.10 589.29 422.93&#xA;  Q 587.69 417.17 586.39 411.13&#xA;  Q 584.09 400.45 581.28 389.88&#xA;  Q 579.09 381.66 577.27 373.96&#xA;  Q 575.18 365.15 573.39 358.01&#xA;  Q 568.03 336.54 562.08 313.85&#xA;  Q 561.93 313.29 561.35 313.29&#xA;  L 502.25 313.39&#xA;  Q 501.36 313.39 501.61 314.23&#xA;  Q 507.80 335.93 513.23 356.87&#xA;  Q 514.43 361.52 515.61 365.46&#xA;  Q 516.91 369.83 517.96 374.12&#xA;  C 519.05 378.58 520.52 382.81 521.53 387.33&#xA;  Q 523.98 398.28 527.35 408.79&#xA;  C 528.89 413.60 529.79 418.04 530.92 422.82&#xA;  C 531.84 426.69 533.25 430.32 534.16 434.21&#xA;  Q 535.13 438.36 536.33 442.65&#xA;  Q 540.84 458.77 546.13 478.11&#xA;  C 547.71 483.88 549.61 489.21 550.81 494.93&#xA;  C 551.42 497.86 552.77 500.56 553.35 503.53&#xA;  Q 554.51 509.41 556.31 514.97&#xA;  C 558.75 522.45 560.17 530.24 562.63 537.56&#xA;  Q 564.88 544.23 567.26 552.30&#xA;  Q 567.55 553.26 568.56 553.26&#xA;  L 616.53 553.25&#xA;  A 2.77 2.76 -78.7 0 0 619.08 551.55&#xA;  C 621.32 546.22 622.28 540.82 624.28 535.49&#xA;  C 625.58 532.01 626.21 528.33 627.47 524.77&#xA;  Q 629.80 518.23 632.10 512.14&#xA;  C 633.44 508.60 634.28 505.02 635.66 501.58&#xA;  C 637.89 495.98 638.67 490.14 640.71 484.61&#xA;  Q 642.15 480.68 643.64 475.81&#xA;  Q 646.23 467.32 649.09 458.21&#xA;  Q 649.54 456.78 649.97 455.31&#xA;  Q 653.49 443.35 657.16 431.75&#xA;  Q 657.84 429.63 657.83 425.28&#xA;  Q 657.82 424.07 658.13 425.24&#xA;  Z&#xA;  M 464.19 346.47&#xA;  Q 458.30 343.59 453.65 342.53&#xA;  Q 445.11 340.59 435.16 340.71&#xA;  C 430.12 340.78 424.45 341.77 419.25 342.51&#xA;  C 416.41 342.90 413.62 344.93 410.77 345.82&#xA;  Q 406.12 347.28 402.98 349.70&#xA;  C 396.34 354.81 391.01 362.58 390.02 371.28&#xA;  Q 389.44 376.36 389.79 380.89&#xA;  C 390.44 389.33 396.00 400.17 403.95 404.58&#xA;  Q 407.39 406.49 410.95 408.15&#xA;  Q 414.97 410.01 421.28 411.24&#xA;  Q 432.93 413.52 443.67 412.64&#xA;  Q 456.61 411.59 467.47 405.29&#xA;  C 469.81 403.94 471.29 402.23 473.36 400.72&#xA;  C 476.92 398.13 478.85 394.55 480.19 390.41&#xA;  Q 485.05 375.36 479.59 360.68&#xA;  C 478.38 357.43 475.76 355.74 473.73 353.15&#xA;  C 471.26 349.99 467.72 348.19 464.19 346.47&#xA;  Z&#xA;  M 477.29 499.36&#xA;  C 470.29 491.06 459.89 485.75 448.56 484.42&#xA;  C 446.54 484.18 444.65 483.62 442.57 483.49&#xA;  Q 428.83 482.62 417.04 485.74&#xA;  Q 407.23 488.33 400.90 493.55&#xA;  Q 388.74 503.56 389.83 520.57&#xA;  Q 391.04 539.55 406.96 548.35&#xA;  C 409.63 549.83 412.65 550.75 415.50 551.97&#xA;  Q 418.72 553.35 422.40 553.83&#xA;  C 436.06 555.63 452.90 555.56 465.03 548.35&#xA;  Q 470.58 545.06 476.30 539.35&#xA;  Q 478.39 537.25 479.28 534.52&#xA;  Q 481.90 526.40 482.25 521.62&#xA;  Q 482.61 516.80 481.34 509.66&#xA;  Q 480.10 502.70 477.29 499.36&#xA;  Z"/>
<path fill="#fefefe" d="&#xA;  M 172.01 464.72&#xA;  Q 172.22 465.70 172.50 464.75&#xA;  Q 180.24 438.83 188.15 412.72&#xA;  C 189.24 409.10 190.00 405.42 191.37 401.88&#xA;  C 193.36 396.71 193.98 391.24 195.93 386.05&#xA;  Q 197.39 382.17 198.66 377.79&#xA;  C 199.38 375.32 200.80 372.98 201.40 370.32&#xA;  Q 202.48 365.51 204.25 360.54&#xA;  C 206.71 353.66 208.33 346.64 210.81 340.07&#xA;  Q 212.94 334.44 214.36 329.36&#xA;  Q 216.55 321.50 218.78 313.80&#xA;  A 0.69 0.69 0.0 0 1 219.44 313.31&#xA;  L 248.95 313.29&#xA;  Q 249.43 313.29 249.55 313.76&#xA;  C 250.16 316.31 250.57 318.87 251.34 321.36&#xA;  C 253.24 327.48 254.28 333.98 256.42 340.07&#xA;  Q 258.06 344.74 259.01 350.06&#xA;  C 259.55 353.08 261.05 355.75 261.80 358.68&#xA;  Q 264.89 370.60 268.55 383.76&#xA;  C 269.12 385.83 269.97 387.75 270.45 389.92&#xA;  Q 271.34 393.96 272.93 399.28&#xA;  Q 277.47 414.44 281.22 428.58&#xA;  Q 283.55 437.39 286.76 447.79&#xA;  Q 290.11 458.64 292.31 468.96&#xA;  Q 292.63 470.48 293.26 469.06&#xA;  C 294.40 466.51 294.56 463.80 295.20 461.02&#xA;  Q 296.36 456.04 297.68 450.71&#xA;  C 299.06 445.10 300.77 439.63 302.05 433.94&#xA;  Q 302.81 430.59 303.84 427.11&#xA;  Q 304.81 423.86 305.66 420.50&#xA;  Q 308.93 407.62 312.20 395.38&#xA;  C 313.44 390.75 314.32 386.02 315.61 381.28&#xA;  Q 319.70 366.35 323.66 351.04&#xA;  Q 324.35 348.35 325.01 345.69&#xA;  Q 326.11 341.30 327.28 337.36&#xA;  Q 328.58 332.96 329.48 328.98&#xA;  Q 331.16 321.58 333.53 313.71&#xA;  Q 333.65 313.32 334.05 313.32&#xA;  L 391.95 313.40&#xA;  A 0.36 0.36 0.0 0 1 392.25 313.96&#xA;  Q 391.15 315.54 390.64 317.42&#xA;  Q 389.10 322.98 387.28 328.16&#xA;  C 386.13 331.44 385.82 334.93 384.64 338.19&#xA;  Q 382.85 343.09 381.81 347.93&#xA;  C 381.13 351.14 379.85 353.93 378.95 356.99&#xA;  Q 372.64 378.29 366.31 401.11&#xA;  C 365.03 405.71 363.29 410.16 362.32 414.86&#xA;  C 361.24 420.15 359.12 425.15 357.79 430.39&#xA;  Q 356.98 433.61 355.87 436.59&#xA;  C 354.19 441.09 353.39 445.85 351.84 450.37&#xA;  C 350.26 454.99 349.51 459.69 347.71 464.30&#xA;  Q 346.90 466.38 346.34 468.59&#xA;  Q 345.78 470.81 345.19 472.96&#xA;  Q 341.96 484.76 338.55 496.57&#xA;  Q 337.23 501.15 335.78 505.36&#xA;  C 334.44 509.27 333.72 513.29 332.40 517.18&#xA;  Q 330.93 521.47 330.08 526.01&#xA;  C 329.19 530.76 327.01 535.02 326.01 539.76&#xA;  C 325.11 544.07 323.27 548.00 322.26 552.23&#xA;  Q 322.11 552.88 321.44 552.88&#xA;  L 270.53 553.04&#xA;  Q 269.92 553.04 269.77 552.44&#xA;  C 268.79 548.39 266.99 544.62 266.08 540.61&#xA;  C 264.81 535.01 262.73 529.81 261.23 524.40&#xA;  C 260.18 520.60 258.55 517.03 257.42 513.18&#xA;  Q 255.17 505.48 252.61 497.89&#xA;  Q 251.19 493.68 250.02 489.54&#xA;  C 248.95 485.78 247.54 482.23 246.42 478.44&#xA;  Q 243.00 466.89 239.23 455.49&#xA;  C 238.11 452.11 237.68 448.41 236.29 444.94&#xA;  Q 234.31 440.01 233.65 435.32&#xA;  Q 233.28 432.66 232.55 430.01&#xA;  Q 231.52 426.27 230.51 430.01&#xA;  Q 226.91 443.35 222.98 456.50&#xA;  Q 221.98 459.83 220.80 462.96&#xA;  C 218.82 468.23 217.52 473.65 215.73 479.03&#xA;  C 212.79 487.87 209.74 496.62 206.96 505.55&#xA;  C 201.99 521.51 196.45 537.27 191.34 552.74&#xA;  Q 191.19 553.20 190.70 553.22&#xA;  Q 188.42 553.32 186.03 553.24&#xA;  Q 164.52 552.50 141.90 552.81&#xA;  A 1.09 1.08 81.5 0 1 140.85 552.02&#xA;  Q 136.33 536.28 131.53 520.35&#xA;  C 130.38 516.52 129.58 512.67 128.22 508.93&#xA;  C 126.92 505.37 126.05 501.66 124.97 498.02&#xA;  Q 118.86 477.43 113.11 456.09&#xA;  C 112.18 452.63 110.77 449.46 110.02 446.00&#xA;  C 109.43 443.31 108.20 440.89 107.50 438.26&#xA;  Q 103.84 424.65 99.72 410.62&#xA;  C 97.63 403.48 95.61 396.21 93.43 388.72&#xA;  Q 90.71 379.38 88.21 370.23&#xA;  Q 85.73 361.18 82.73 351.78&#xA;  C 81.90 349.19 81.41 346.34 80.67 343.76&#xA;  Q 76.86 330.45 73.03 317.51&#xA;  Q 72.48 315.66 71.53 314.17&#xA;  A 0.53 0.53 0.0 0 1 71.98 313.35&#xA;  L 132.94 313.31&#xA;  Q 133.40 313.31 133.55 313.74&#xA;  Q 136.50 322.25 138.26 330.97&#xA;  Q 138.83 333.80 139.63 336.39&#xA;  Q 140.54 339.34 141.19 341.97&#xA;  Q 144.57 355.51 148.01 367.42&#xA;  Q 149.23 371.66 149.88 375.50&#xA;  C 150.80 380.95 152.80 385.96 153.87 391.26&#xA;  C 155.01 396.86 156.90 401.98 157.89 407.45&#xA;  C 158.93 413.17 160.62 418.64 162.10 424.27&#xA;  C 163.48 429.55 165.41 434.56 166.34 440.17&#xA;  Q 166.96 443.85 167.99 447.77&#xA;  Q 170.25 456.34 172.01 464.72&#xA;  Z"/>
<path fill="#fefefe" d="&#xA;  M 657.83 425.28&#xA;  Q 657.84 429.63 657.16 431.75&#xA;  Q 653.49 443.35 649.97 455.31&#xA;  Q 649.54 456.78 649.09 458.21&#xA;  Q 646.23 467.32 643.64 475.81&#xA;  Q 642.15 480.68 640.71 484.61&#xA;  C 638.67 490.14 637.89 495.98 635.66 501.58&#xA;  C 634.28 505.02 633.44 508.60 632.10 512.14&#xA;  Q 629.80 518.23 627.47 524.77&#xA;  C 626.21 528.33 625.58 532.01 624.28 535.49&#xA;  C 622.28 540.82 621.32 546.22 619.08 551.55&#xA;  A 2.77 2.76 -78.7 0 1 616.53 553.25&#xA;  L 568.56 553.26&#xA;  Q 567.55 553.26 567.26 552.30&#xA;  Q 564.88 544.23 562.63 537.56&#xA;  C 560.17 530.24 558.75 522.45 556.31 514.97&#xA;  Q 554.51 509.41 553.35 503.53&#xA;  C 552.77 500.56 551.42 497.86 550.81 494.93&#xA;  C 549.61 489.21 547.71 483.88 546.13 478.11&#xA;  Q 540.84 458.77 536.33 442.65&#xA;  Q 535.13 438.36 534.16 434.21&#xA;  C 533.25 430.32 531.84 426.69 530.92 422.82&#xA;  C 529.79 418.04 528.89 413.60 527.35 408.79&#xA;  Q 523.98 398.28 521.53 387.33&#xA;  C 520.52 382.81 519.05 378.58 517.96 374.12&#xA;  Q 516.91 369.83 515.61 365.46&#xA;  Q 514.43 361.52 513.23 356.87&#xA;  Q 507.80 335.93 501.61 314.23&#xA;  Q 501.36 313.39 502.25 313.39&#xA;  L 561.35 313.29&#xA;  Q 561.93 313.29 562.08 313.85&#xA;  Q 568.03 336.54 573.39 358.01&#xA;  Q 575.18 365.15 577.27 373.96&#xA;  Q 579.09 381.66 581.28 389.88&#xA;  Q 584.09 400.45 586.39 411.13&#xA;  Q 587.69 417.17 589.29 422.93&#xA;  C 590.72 428.10 591.57 433.28 592.93 438.64&#xA;  Q 594.68 445.51 596.52 452.35&#xA;  Q 597.42 455.67 597.89 459.21&#xA;  Q 598.36 462.75 599.43 466.20&#xA;  Q 599.59 466.74 599.93 466.29&#xA;  Q 600.65 465.35 600.91 464.23&#xA;  Q 603.59 452.71 608.56 438.50&#xA;  Q 611.48 430.15 613.98 421.43&#xA;  Q 615.23 417.04 616.67 412.93&#xA;  C 617.93 409.33 618.72 405.54 620.04 401.85&#xA;  Q 622.80 394.11 625.10 385.69&#xA;  Q 627.08 378.46 628.77 373.90&#xA;  C 632.22 364.64 634.88 355.18 637.82 346.15&#xA;  C 640.97 336.48 643.44 327.18 646.32 317.49&#xA;  C 646.63 316.44 646.70 315.31 646.76 314.23&#xA;  A 0.94 0.94 0.0 0 1 647.70 313.33&#xA;  L 674.96 313.30&#xA;  Q 675.40 313.30 675.53 313.73&#xA;  Q 679.08 325.33 681.78 335.61&#xA;  C 683.16 340.87 685.33 345.88 686.52 351.18&#xA;  C 687.05 353.54 688.10 355.61 688.64 357.98&#xA;  Q 690.26 365.05 692.22 371.50&#xA;  C 693.90 377.02 695.14 382.92 696.91 388.62&#xA;  Q 698.06 392.30 698.92 395.96&#xA;  C 699.70 399.29 700.97 402.38 701.77 405.73&#xA;  Q 703.03 411.01 704.53 416.20&#xA;  Q 709.02 431.71 712.97 446.11&#xA;  C 713.65 448.60 713.53 451.19 714.47 453.62&#xA;  Q 716.79 459.61 718.90 466.35&#xA;  Q 719.09 466.97 719.65 467.24&#xA;  Q 720.22 467.51 720.70 467.12&#xA;  A 1.28 1.26 -15.4 0 0 721.18 466.29&#xA;  C 721.98 460.65 723.79 455.33 724.97 449.78&#xA;  C 725.74 446.16 726.45 442.65 727.50 439.11&#xA;  Q 729.61 432.03 731.01 424.62&#xA;  C 731.57 421.71 733.05 418.07 733.75 414.68&#xA;  C 735.13 408.05 737.38 401.97 738.85 395.31&#xA;  C 739.69 391.53 741.00 387.95 741.75 384.13&#xA;  C 743.02 377.64 745.02 371.42 746.53 364.85&#xA;  Q 747.52 360.52 749.16 355.32&#xA;  Q 751.03 349.38 752.52 343.34&#xA;  C 754.59 334.99 756.95 327.49 758.69 319.08&#xA;  Q 759.21 316.59 760.13 314.11&#xA;  A 1.07 1.05 -79.6 0 1 761.12 313.42&#xA;  L 817.92 313.39&#xA;  A 0.71 0.70 -80.7 0 1 818.59 314.33&#xA;  Q 817.36 317.87 816.04 321.03&#xA;  C 814.19 325.47 813.51 330.34 812.09 334.93&#xA;  Q 810.97 338.50 810.00 342.14&#xA;  Q 807.77 350.43 805.41 359.03&#xA;  Q 804.53 362.25 803.48 365.41&#xA;  C 802.44 368.51 802.09 371.75 800.98 374.84&#xA;  C 798.97 380.43 797.85 386.15 796.02 391.81&#xA;  Q 793.77 398.79 791.47 406.76&#xA;  C 790.36 410.61 789.94 414.50 788.61 418.37&#xA;  C 785.39 427.70 782.92 437.44 780.20 446.55&#xA;  C 778.58 451.96 777.16 457.39 775.50 462.77&#xA;  C 773.08 470.65 771.03 478.60 768.64 486.53&#xA;  C 767.06 491.76 765.71 497.11 763.94 502.32&#xA;  Q 762.81 505.67 761.62 510.69&#xA;  Q 759.82 518.28 756.73 527.44&#xA;  Q 754.50 534.05 752.90 540.45&#xA;  Q 751.33 546.76 749.40 552.79&#xA;  Q 749.24 553.27 748.74 553.27&#xA;  L 698.43 553.26&#xA;  Q 697.85 553.26 697.62 552.72&#xA;  Q 696.56 550.25 695.71 547.77&#xA;  Q 691.41 535.22 687.07 521.43&#xA;  C 683.97 511.61 680.40 501.75 677.88 491.93&#xA;  Q 676.93 488.23 675.36 484.45&#xA;  C 673.94 481.05 673.60 477.27 672.36 473.64&#xA;  Q 666.51 456.50 662.75 443.21&#xA;  Q 661.52 438.88 660.25 434.54&#xA;  C 659.35 431.46 658.93 428.36 658.13 425.24&#xA;  Q 657.82 424.07 657.83 425.28&#xA;  Z"/>
<path fill="#fefefe" d="&#xA;  M 464.19 346.47&#xA;  C 467.72 348.19 471.26 349.99 473.73 353.15&#xA;  C 475.76 355.74 478.38 357.43 479.59 360.68&#xA;  Q 485.05 375.36 480.19 390.41&#xA;  C 478.85 394.55 476.92 398.13 473.36 400.72&#xA;  C 471.29 402.23 469.81 403.94 467.47 405.29&#xA;  Q 456.61 411.59 443.67 412.64&#xA;  Q 432.93 413.52 421.28 411.24&#xA;  Q 414.97 410.01 410.95 408.15&#xA;  Q 407.39 406.49 403.95 404.58&#xA;  C 396.00 400.17 390.44 389.33 389.79 380.89&#xA;  Q 389.44 376.36 390.02 371.28&#xA;  C 391.01 362.58 396.34 354.81 402.98 349.70&#xA;  Q 406.12 347.28 410.77 345.82&#xA;  C 413.62 344.93 416.41 342.90 419.25 342.51&#xA;  C 424.45 341.77 430.12 340.78 435.16 340.71&#xA;  Q 445.11 340.59 453.65 342.53&#xA;  Q 458.30 343.59 464.19 346.47&#xA;  Z"/>
<path fill="#fefefe" d="&#xA;  M 448.56 484.42&#xA;  C 459.89 485.75 470.29 491.06 477.29 499.36&#xA;  Q 480.10 502.70 481.34 509.66&#xA;  Q 482.61 516.80 482.25 521.62&#xA;  Q 481.90 526.40 479.28 534.52&#xA;  Q 478.39 537.25 476.30 539.35&#xA;  Q 470.58 545.06 465.03 548.35&#xA;  C 452.90 555.56 436.06 555.63 422.40 553.83&#xA;  Q 418.72 553.35 415.50 551.97&#xA;  C 412.65 550.75 409.63 549.83 406.96 548.35&#xA;  Q 391.04 539.55 389.83 520.57&#xA;  Q 388.74 503.56 400.90 493.55&#xA;  Q 407.23 488.33 417.04 485.74&#xA;  Q 428.83 482.62 442.57 483.49&#xA;  C 444.65 483.62 446.54 484.18 448.56 484.42&#xA;  Z"/>
</svg>